<svg width="7" height="11" viewBox="0 0 7 11" fill="none" xmlns="http://www.w3.org/2000/svg">
<path d="M0.822266 10.9653C0.610352 10.9653 0.429199 10.8918 0.278809 10.7449C0.128418 10.5979 0.0532227 10.4185 0.0532227 10.2065C0.0532227 9.99463 0.131836 9.81006 0.289062 9.65283L4.43164 5.52051L0.289062 1.38818C0.131836 1.23096 0.0532227 1.04639 0.0532227 0.834473C0.0532227 0.622559 0.128418 0.443115 0.278809 0.296143C0.429199 0.14917 0.610352 0.0756836 0.822266 0.0756836C1.02051 0.0756836 1.19824 0.147461 1.35547 0.291016L6.03125 4.94629C6.19531 5.09668 6.27734 5.28809 6.27734 5.52051C6.27734 5.73926 6.19531 5.93066 6.03125 6.09473L1.35547 10.75C1.21191 10.8936 1.03418 10.9653 0.822266 10.9653Z" fill="white"/>
</svg>
