<svg width="21" height="19" viewBox="0 0 21 19" fill="none" xmlns="http://www.w3.org/2000/svg">
<path d="M9.4333 0.706414C9.74523 -0.187726 11.0097 -0.187727 11.3217 0.706413L13.0363 5.62113C13.1763 6.02271 13.5551 6.29173 13.9804 6.29173H19.369C20.3549 6.29173 20.746 7.56744 19.9295 8.11994L15.6952 10.9852C15.3195 11.2394 15.162 11.7145 15.3114 12.1428L16.9571 16.8601C17.2742 17.769 16.2498 18.5572 15.4525 18.0177L10.9379 14.9628C10.5994 14.7337 10.1556 14.7337 9.81707 14.9628L5.30249 18.0177C4.5052 18.5572 3.48077 17.769 3.79787 16.8601L5.44356 12.1428C5.59296 11.7145 5.43543 11.2394 5.05979 10.9852L0.825513 8.11994C0.00902946 7.56745 0.400091 6.29173 1.38594 6.29173H6.77454C7.19985 6.29173 7.57863 6.02271 7.71873 5.62113L9.4333 0.706414Z" fill="#1D1D1F"/>
</svg>
