<svg width="21" height="19" viewBox="0 0 21 19" fill="none" xmlns="http://www.w3.org/2000/svg">
<path d="M9.29511 0.706414C9.60705 -0.187726 10.8716 -0.187727 11.1835 0.706413L12.8981 5.62113C13.0382 6.02271 13.4169 6.29173 13.8423 6.29173H19.2309C20.2167 6.29173 20.6078 7.56744 19.7913 8.11994L15.557 10.9852C15.1814 11.2394 15.0238 11.7145 15.1732 12.1428L16.8189 16.8601C17.136 17.769 16.1116 18.5572 15.3143 18.0177L10.7997 14.9628C10.4612 14.7337 10.0174 14.7337 9.67888 14.9628L5.1643 18.0177C4.36702 18.5572 3.34258 17.769 3.65968 16.8601L5.30538 12.1428C5.45478 11.7145 5.29725 11.2394 4.92161 10.9852L0.687329 8.11994C-0.129154 7.56745 0.261907 6.29173 1.24775 6.29173H6.63635C7.06167 6.29173 7.44045 6.02271 7.58055 5.62113L9.29511 0.706414Z" fill="#9E70F6"/>
</svg>
